<?xml version="1.0"?>
<svg xmlns="http://www.w3.org/2000/svg" xmlns:xlink="http://www.w3.org/1999/xlink" xmlns:svgjs="http://svgjs.com/svgjs" version="1.1" width="512" height="512" x="0" y="0" viewBox="0 0 74 74" style="enable-background:new 0 0 512 512" xml:space="preserve" class=""><g><path xmlns="http://www.w3.org/2000/svg" d="M40.99,72H33.01a1.992,1.992,0,0,1-1.973-1.674l-.794-4.786a29.067,29.067,0,0,1-8.64-3.585l-3.952,2.828a1.994,1.994,0,0,1-2.578-.212L9.43,58.927a1.994,1.994,0,0,1-.213-2.578L12.045,52.4A29.062,29.062,0,0,1,8.46,43.757l-4.787-.794A1.994,1.994,0,0,1,2,40.99V33.01a1.994,1.994,0,0,1,1.673-1.973l4.787-.794A29.062,29.062,0,0,1,12.045,21.6L9.218,17.651a1.994,1.994,0,0,1,.211-2.578L15.073,9.43a1.992,1.992,0,0,1,2.578-.212L21.6,12.045a29.056,29.056,0,0,1,8.64-3.585l.794-4.787A1.992,1.992,0,0,1,33.01,2h7.98a1.992,1.992,0,0,1,1.973,1.674l.794,4.786a29.056,29.056,0,0,1,8.64,3.585l3.952-2.828a2,2,0,0,1,2.578.212l5.643,5.644a1.994,1.994,0,0,1,.213,2.578L61.955,21.6a29.062,29.062,0,0,1,3.585,8.641l4.787.794A1.994,1.994,0,0,1,72,33.01v7.98a1.994,1.994,0,0,1-1.673,1.973l-4.787.794A29.062,29.062,0,0,1,61.955,52.4l2.827,3.951a1.994,1.994,0,0,1-.211,2.578L58.927,64.57a1.993,1.993,0,0,1-2.578.212L52.4,61.955a29.067,29.067,0,0,1-8.64,3.585l-.794,4.787A1.992,1.992,0,0,1,40.99,72Zm-8.87-7.369L33.01,70h7.98l.894-5.391a1,1,0,0,1,.786-.876,27.091,27.091,0,0,0,9.244-3.84,1,1,0,0,1,1.314.2l4.285,3.067,5.643-5.643-3.111-4.346a.985.985,0,0,1-.152-1.253,27.074,27.074,0,0,0,3.84-9.244,1,1,0,0,1,.9-.79L70,40.99V33.01l-5.391-.894a1,1,0,0,1-.876-.786,27.074,27.074,0,0,0-3.84-9.244,1,1,0,0,1,.2-1.313l3.068-4.286-5.643-5.643-4.346,3.11a.984.984,0,0,1-1.254.153,27.061,27.061,0,0,0-9.243-3.84,1,1,0,0,1-.791-.9L40.99,4H33.01l-.893,5.387a1,1,0,0,1-.787.88,27.061,27.061,0,0,0-9.243,3.84,1,1,0,0,1-1.316-.2l-4.284-3.066-5.643,5.643,3.111,4.346a.985.985,0,0,1,.152,1.253,27.074,27.074,0,0,0-3.84,9.244,1,1,0,0,1-.9.79L4,33.01v7.98l5.391.894a1,1,0,0,1,.876.786,27.074,27.074,0,0,0,3.84,9.244,1,1,0,0,1-.195,1.313l-3.068,4.286,5.643,5.643,4.346-3.11a.984.984,0,0,1,1.253-.153,27.091,27.091,0,0,0,9.244,3.84A1,1,0,0,1,32.12,64.631Z" fill="#009fe3" data-original="#000000" style="" class=""/><path xmlns="http://www.w3.org/2000/svg" d="M52.451,25.9a1,1,0,0,1-.79-.386,18.614,18.614,0,0,0-1.983-2.163,1,1,0,1,1,1.364-1.462,20.5,20.5,0,0,1,2.2,2.4,1,1,0,0,1-.788,1.614Z" fill="#009fe3" data-original="#000000" style="" class=""/><path xmlns="http://www.w3.org/2000/svg" d="M37.01,57.61A20.618,20.618,0,0,1,33.387,16.7a1,1,0,0,1,.346,1.97A18.619,18.619,0,1,0,55.1,32.617a1,1,0,1,1,1.944-.474,20.619,20.619,0,0,1-15.283,24.91A20.255,20.255,0,0,1,37.01,57.61Z" fill="#009fe3" data-original="#000000" style="" class=""/><path xmlns="http://www.w3.org/2000/svg" d="M44.459,19.84a1,1,0,0,1-.384-.077,18.066,18.066,0,0,0-2.683-.872,1,1,0,0,1,.476-1.942,19.93,19.93,0,0,1,2.977.968,1,1,0,0,1-.386,1.923Z" fill="#009fe3" data-original="#000000" style="" class=""/><path xmlns="http://www.w3.org/2000/svg" d="M32.47,57.08a1,1,0,0,1-1-1V46.76a1,1,0,1,1,2,0v9.32A1,1,0,0,1,32.47,57.08Z" fill="#009fe3" data-original="#000000" style="" class=""/><path xmlns="http://www.w3.org/2000/svg" d="M41.53,57.08a1,1,0,0,1-1-1V46.76a1,1,0,1,1,2,0v9.32A1,1,0,0,1,41.53,57.08Z" fill="#009fe3" data-original="#000000" style="" class=""/><path xmlns="http://www.w3.org/2000/svg" d="M32.469,47.756a.99.99,0,0,1-.454-.11,10.968,10.968,0,0,1,0-19.536,1,1,0,1,1,.91,1.78,8.969,8.969,0,0,0,0,15.976,1,1,0,0,1-.456,1.89Z" fill="#009fe3" data-original="#000000" style="" class=""/><path xmlns="http://www.w3.org/2000/svg" d="M41.531,47.756a1,1,0,0,1-.456-1.89,8.969,8.969,0,0,0,0-15.976,1,1,0,0,1,.91-1.78,10.968,10.968,0,0,1,0,19.536A.99.99,0,0,1,41.531,47.756Z" fill="#009fe3" data-original="#000000" style="" class=""/><path xmlns="http://www.w3.org/2000/svg" d="M37,40.309a.992.992,0,0,1-.675-.263L31.8,35.9a1,1,0,0,1-.325-.737V29a1,1,0,0,1,2,0v5.72L37,37.953l3.53-3.233V29a1,1,0,0,1,2,0v6.16a1,1,0,0,1-.325.737l-4.53,4.149A.992.992,0,0,1,37,40.309Z" fill="#009fe3" data-original="#000000" style="" class=""/></g></svg>
