<?xml version="1.0"?>
<svg xmlns="http://www.w3.org/2000/svg" xmlns:xlink="http://www.w3.org/1999/xlink" xmlns:svgjs="http://svgjs.com/svgjs" version="1.1" width="512" height="512" x="0" y="0" viewBox="0 0 74 74" style="enable-background:new 0 0 512 512" xml:space="preserve" class=""><g><path xmlns="http://www.w3.org/2000/svg" d="m52.479 67.86h-30.958a4.051 4.051 0 0 1 -3.5-2.021l-15.479-26.81a4.052 4.052 0 0 1 0-4.042l15.479-26.811a4.055 4.055 0 0 1 3.5-2.021h30.958a4.055 4.055 0 0 1 3.5 2.021l15.479 26.811a4.052 4.052 0 0 1 0 4.042l-15.479 26.81a4.051 4.051 0 0 1 -3.5 2.021zm-30.958-59.705a2.05 2.05 0 0 0 -1.769 1.021l-15.478 26.811a2.046 2.046 0 0 0 0 2.042l15.479 26.81a2.045 2.045 0 0 0 1.768 1.021h30.958a2.045 2.045 0 0 0 1.768-1.021l15.479-26.81a2.048 2.048 0 0 0 0-2.042l-15.479-26.811a2.047 2.047 0 0 0 -1.768-1.021z" fill="#009fe3" data-original="#000000" style=""/><path xmlns="http://www.w3.org/2000/svg" d="m20.15 45.021a1 1 0 0 1 -.921-.609 17.5 17.5 0 0 1 -1-3.131 1 1 0 1 1 1.956-.422 15.41 15.41 0 0 0 .882 2.769 1 1 0 0 1 -.92 1.393z" fill="#009fe3" data-original="#000000" style=""/><path xmlns="http://www.w3.org/2000/svg" d="m37 56.26a18.654 18.654 0 0 1 -3.465-.318 1 1 0 1 1 .371-1.964 16.748 16.748 0 0 0 3.094.282 17.25 17.25 0 1 0 -16.591-21.99 1 1 0 0 1 -1.969-.24v-.01a1.011 1.011 0 0 1 .038-.273 19.252 19.252 0 1 1 18.522 24.513z" fill="#009fe3" data-original="#000000" style=""/><path xmlns="http://www.w3.org/2000/svg" d="m26.339 52.82a1 1 0 0 1 -.578-.185 17.746 17.746 0 0 1 -2.438-2.088 1 1 0 1 1 1.434-1.394 15.805 15.805 0 0 0 2.162 1.852 1 1 0 0 1 -.58 1.815z" fill="#009fe3" data-original="#000000" style=""/></g></svg>
